<svg width="60" height="60" viewBox="0 0 60 60" fill="none" xmlns="http://www.w3.org/2000/svg">
<circle cx="30" cy="30" r="30" fill="#111111"/>
<path d="M23 22.7234C23 22.3239 23.2239 22 23.5 22H27.5C27.7761 22 28 22.3239 28 22.7234V38.2766C28 38.6761 27.7761 39 27.5 39H23.5C23.2239 39 23 38.6761 23 38.2766V22.7234Z" fill="white"/>
<path d="M32 22.7234C32 22.3239 32.2239 22 32.5 22H36.5C36.7761 22 37 22.3239 37 22.7234V38.2766C37 38.6761 36.7761 39 36.5 39H32.5C32.2239 39 32 38.6761 32 38.2766V22.7234Z" fill="white"/>
</svg>
