<svg width="24" height="24" viewBox="0 0 24 24" fill="none" xmlns="http://www.w3.org/2000/svg">
<path d="M3.69495 3.71101C3.69495 3.28516 3.96537 2.93994 4.29895 2.93994H9.13101C9.4646 2.93994 9.73501 3.28516 9.73501 3.71101V20.2891C9.73501 20.7149 9.4646 21.0601 9.13101 21.0601H4.29895C3.96537 21.0601 3.69495 20.7149 3.69495 20.2891V3.71101Z" fill="white"/>
<path d="M14.265 3.71101C14.265 3.28516 14.5354 2.93994 14.869 2.93994H19.7011C20.0347 2.93994 20.3051 3.28516 20.3051 3.71101V20.2891C20.3051 20.7149 20.0347 21.0601 19.7011 21.0601H14.869C14.5354 21.0601 14.265 20.7149 14.265 20.2891V3.71101Z" fill="white"/>
</svg>
